<?xml version="1.0" standalone="no"?>
<!DOCTYPE svg PUBLIC "-//W3C//DTD SVG 20010904//EN"
 "http://www.w3.org/TR/2001/REC-SVG-20010904/DTD/svg10.dtd">
<svg version="1.0" xmlns="http://www.w3.org/2000/svg"
 width="491.000000pt" height="491.000000pt" viewBox="0 0 491.000000 491.000000"
 preserveAspectRatio="xMidYMid meet">

<g transform="translate(0.000000,491.000000) scale(0.100000,-0.100000)"
fill="#000000" stroke="none">
<path d="M2289 4591 c-80 -11 -193 -48 -274 -88 -101 -51 -241 -192 -284 -287
-39 -87 -48 -145 -56 -378 -8 -204 -7 -205 45 -168 68 48 228 100 310 100 15
0 30 6 33 14 3 7 3 66 0 130 l-6 116 -48 0 c-103 0 -156 109 -80 167 24 18
1125 18 1161 0 39 -20 54 -59 37 -99 -20 -47 -40 -60 -105 -67 l-57 -6 2 -124
c1 -68 3 -124 5 -126 2 -1 47 -9 101 -18 71 -11 120 -26 180 -56 45 -22 85
-36 90 -32 14 13 -10 432 -28 481 -69 192 -277 371 -495 425 -73 19 -434 29
-531 16z"/>
<path d="M1545 4367 c-375 -210 -605 -419 -816 -741 -172 -262 -262 -498 -321
-840 -31 -177 -30 -475 1 -641 55 -295 125 -495 253 -716 156 -273 395 -533
638 -696 374 -250 774 -374 1210 -374 281 0 500 41 768 145 282 109 529 272
735 485 304 315 492 682 578 1128 29 149 32 541 5 678 -57 292 -109 449 -219
659 -71 135 -125 215 -250 371 -145 180 -242 269 -452 415 -98 69 -335 197
-335 182 0 -5 16 -30 36 -56 51 -67 89 -150 108 -236 14 -61 17 -123 15 -355
l-2 -281 26 -40 c53 -85 72 -175 97 -479 6 -71 17 -186 25 -255 27 -223 56
-604 50 -645 -23 -150 -75 -274 -155 -372 -69 -85 -190 -168 -292 -202 -21 -7
-38 -15 -38 -18 0 -4 11 -34 24 -67 23 -59 36 -123 53 -251 l8 -60 78 -5 c75
-5 80 -7 113 -42 28 -32 34 -45 34 -84 0 -51 -12 -81 -44 -106 -20 -16 -86
-18 -965 -18 l-943 0 -34 34 c-30 30 -34 40 -34 85 0 55 19 94 54 113 11 6 59
14 106 17 l85 6 7 93 c7 107 23 182 49 234 11 21 19 41 19 46 0 5 -34 23 -76
40 -179 73 -307 208 -375 392 -41 113 -47 184 -33 362 13 158 39 422 48 493 5
39 25 215 47 425 11 109 37 202 70 256 18 29 19 53 19 321 0 260 2 297 21 369
25 96 66 185 113 245 64 79 55 78 -109 -14z m2488 -1433 c41 -21 47 -31 47
-76 0 -65 -81 -102 -138 -62 -17 12 -22 25 -22 58 0 44 12 66 45 84 27 15 31
15 68 -4z m-2954 -11 c12 -10 24 -35 28 -55 5 -32 1 -41 -26 -69 -27 -26 -37
-30 -64 -25 -18 3 -40 16 -49 27 -25 29 -23 94 2 119 25 25 80 26 109 3z
m2964 -312 c59 -23 75 -80 35 -125 -39 -43 -107 -36 -133 14 -21 41 -19 58 14
91 31 31 46 34 84 20z m-2973 -21 c47 -47 5 -139 -63 -140 -32 0 -87 47 -87
75 0 22 27 72 42 78 32 13 89 6 108 -13z m2988 -333 c31 -28 30 -80 -3 -112
-32 -33 -74 -32 -109 0 -23 21 -27 32 -24 68 3 36 7 44 36 58 38 19 67 15 100
-14z m-2974 -2 c33 -31 33 -65 0 -104 -29 -35 -75 -41 -112 -15 -32 22 -32
105 1 127 34 24 80 21 111 -8z"/>
<path d="M2251 4012 c-5 -9 -7 -30 -4 -46 l6 -29 226 7 c292 9 291 9 291 52
l0 34 -255 0 c-233 0 -255 -2 -264 -18z"/>
<path d="M2214 3745 c-22 -34 -10 -73 29 -95 32 -18 55 -8 75 33 21 42 -2 81
-50 85 -31 3 -40 -1 -54 -23z"/>
<path d="M2466 3748 c-22 -31 -20 -52 7 -84 19 -22 29 -26 50 -20 15 3 34 18
43 32 16 23 16 28 1 60 -14 29 -22 34 -51 34 -25 0 -39 -7 -50 -22z"/>
<path d="M2716 3751 c-24 -27 -17 -70 17 -94 l27 -21 28 21 c33 24 39 56 18
89 -20 30 -65 32 -90 5z"/>
<path d="M1955 3562 c-130 -38 -237 -116 -287 -209 -27 -49 -43 -138 -67 -368
-25 -235 -31 -289 -52 -450 -13 -105 -21 -237 -22 -345 l-2 -175 39 -80 c66
-136 180 -229 333 -275 42 -13 43 -13 116 38 40 28 99 61 132 74 32 13 60 28
62 33 1 6 -39 37 -89 70 -113 74 -183 137 -260 234 -121 151 -168 295 -168
504 1 231 64 370 255 565 l112 114 4 141 4 142 -25 2 c-14 1 -52 -6 -85 -15z"/>
<path d="M2965 3572 c-3 -3 -5 -63 -5 -133 l0 -128 104 -104 c130 -129 195
-228 238 -356 31 -93 32 -101 32 -266 0 -160 -1 -174 -27 -244 -15 -40 -42
-101 -61 -135 -77 -136 -259 -311 -384 -368 -71 -32 -72 -46 -4 -66 21 -7 80
-37 131 -68 l93 -55 72 26 c147 53 240 134 306 265 37 73 54 164 46 243 -3 34
-13 141 -21 237 -8 96 -22 229 -30 295 -7 66 -21 185 -30 265 -22 199 -42 303
-67 358 -30 63 -121 151 -191 185 -57 27 -191 60 -202 49z"/>
<path d="M2360 3251 c-36 -10 -81 -26 -100 -36 -50 -26 -150 -94 -150 -103 0
-4 91 -98 203 -209 l202 -202 210 205 210 205 -38 33 c-124 110 -357 156 -537
107z"/>
<path d="M1969 2958 c-100 -134 -139 -309 -105 -479 17 -81 75 -218 113 -266
l18 -22 198 194 c109 107 197 199 195 204 -3 10 -122 132 -301 309 l-94 93
-24 -33z"/>
<path d="M2830 2785 l-194 -195 201 -202 201 -202 41 64 c87 134 117 332 77
495 -19 79 -94 229 -117 233 -7 1 -102 -85 -209 -193z"/>
<path d="M2310 2275 l-195 -196 30 -24 c47 -38 163 -93 235 -111 100 -25 242
-15 345 25 86 33 186 89 192 107 4 11 -380 387 -400 392 -7 1 -100 -86 -207
-193z"/>
<path d="M2454 1536 c-124 -56 -49 -261 85 -231 35 8 65 38 86 88 41 99 -68
190 -171 143z"/>
</g>
</svg>
